<?xml version="1.0" encoding="iso-8859-1"?>
<!-- Generator: Adobe Illustrator 19.0.0, SVG Export Plug-In . SVG Version: 6.00 Build 0)  -->
<svg xmlns="http://www.w3.org/2000/svg" xmlns:xlink="http://www.w3.org/1999/xlink" version="1.1" id="Capa_1" x="0px" y="0px" viewBox="0 0 511 511" style="enable-background:new 0 0 511 511;" xml:space="preserve" width="512px" height="512px">
<path d="M470.164,229.06c-21.352-22.271-50.967-40.634-88.022-54.579c-50.79-19.114-100.868-24.577-119.142-26.009V131.5  c0-12.958-10.542-23.5-23.5-23.5S216,118.542,216,131.5v74.906c-7.415,3.583-15.727,5.594-24.5,5.594h-104  C69.58,212,55,197.42,55,179.5c0-17.369-14.131-31.5-31.5-31.5C10.542,148,0,158.542,0,171.5v208C0,392.458,10.542,403,23.5,403h464  c12.958,0,23.5-10.542,23.5-23.5v-48C511,291.788,497.261,257.322,470.164,229.06z M15,243.321  c42.828,3.612,77.067,37.851,80.679,80.679H15V243.321z M15,339h481v17H15V339z M459.448,239.557  c22.537,23.557,34.743,51.936,36.36,84.443H343.21c1.573-28.895,12.331-53.354,32.054-72.782  c22.014-21.685,47.934-29.912,58.056-32.442c0.446-0.111,0.869-0.266,1.274-0.449C443.915,224.921,452.22,232.002,459.448,239.557z   M231,131.5c0-4.687,3.813-8.5,8.5-8.5s8.5,3.813,8.5,8.5v24c0,15.792-6.52,30.083-17,40.346V131.5z M23.5,163  c9.098,0,16.5,7.402,16.5,16.5c0,26.191,21.309,47.5,47.5,47.5h104c11.872,0,23.068-2.922,32.932-8.064  c2.032-0.252,3.809-1.316,5.001-2.859c18.007-11.316,30.643-30.427,33.122-52.568c6.549,0.547,17.104,1.624,30.162,3.627  l-6.493,26.206c-0.996,4.021,1.456,8.087,5.476,9.083c0.606,0.15,1.212,0.222,1.81,0.222c3.366,0,6.428-2.284,7.274-5.698  l6.764-27.302c5.938,1.1,12.2,2.379,18.693,3.859l-5.456,24.667c-0.895,4.044,1.659,8.048,5.704,8.943  c0.545,0.121,1.09,0.178,1.627,0.178c3.441,0,6.542-2.383,7.316-5.882l5.38-24.324c6.509,1.721,13.161,3.652,19.874,5.809  l-8.061,22.821c-1.379,3.906,0.668,8.19,4.574,9.57c0.826,0.292,1.669,0.43,2.498,0.43c3.09,0,5.984-1.925,7.072-5.004l8.099-22.927  c0.766,0.283,1.533,0.56,2.299,0.849c14.967,5.649,28.601,12.036,40.861,19.113c-14.078,4.941-34.89,14.66-53.289,32.784  c-22.681,22.342-34.953,50.395-36.551,83.468H110.726c-3.677-51.105-44.622-92.049-95.726-95.726V171.5  C15,166.813,18.813,163,23.5,163z M487.5,388h-464c-4.687,0-8.5-3.813-8.5-8.5V371h481v8.5C496,384.187,492.187,388,487.5,388z" fill="#FFFFFF"/>
<g>
</g>
<g>
</g>
<g>
</g>
<g>
</g>
<g>
</g>
<g>
</g>
<g>
</g>
<g>
</g>
<g>
</g>
<g>
</g>
<g>
</g>
<g>
</g>
<g>
</g>
<g>
</g>
<g>
</g>
</svg>
