<?xml version="1.0" encoding="UTF-8"?>
<!DOCTYPE svg PUBLIC "-//W3C//DTD SVG 1.1//EN" "http://www.w3.org/Graphics/SVG/1.1/DTD/svg11.dtd">
<!-- Creator: CorelDRAW 2017 -->
<svg xmlns="http://www.w3.org/2000/svg" xml:space="preserve" width="2.99928in" height="2.99886in" version="1.1" style="shape-rendering:geometricPrecision; text-rendering:geometricPrecision; image-rendering:optimizeQuality; fill-rule:evenodd; clip-rule:evenodd"
viewBox="0 0 683 683"
 xmlns:xlink="http://www.w3.org/1999/xlink">
 <defs>
  <style type="text/css">
   <![CDATA[
    .fil7 {fill:#079E81}
    .fil4 {fill:#0E75AF}
    .fil5 {fill:#135184}
    .fil3 {fill:#223542}
    .fil6 {fill:#23C181}
    .fil9 {fill:#A00C08}
    .fil8 {fill:#C42014}
    .fil12 {fill:#D0E2DF}
    .fil2 {fill:#D38C0D}
    .fil0 {fill:#E6E6E6}
    .fil10 {fill:#ED8E1D}
    .fil1 {fill:#EFA91B}
    .fil11 {fill:white}
    .fil13 {fill:#D0E2DF;fill-opacity:0.400000}
   ]]>
  </style>
 </defs>
 <g id="Layer_x0020_1">
  <metadata id="CorelCorpID_0Corel-Layer"/>
  <circle class="fil0" cx="342" cy="342" r="342"/>
  <g id="_2760208454560">
   <rect class="fil1" x="184" y="207" width="161" height="161"/>
   <g>
    <polygon class="fil2" points="184,207 345,207 345,368 "/>
   </g>
   <rect class="fil1" x="352" y="253" width="92" height="92"/>
   <g>
    <polygon class="fil2" points="352,253 444,253 444,345 "/>
   </g>
   <rect class="fil1" transform="matrix(-0.176065 -0.176065 0.176065 -0.176065 387.593 249.439)" width="363" height="363"/>
   <g>
    <polygon class="fil2" points="387,122 452,185 387,250 "/>
   </g>
   <path class="fil3" d="M505 306c0,9 -5,17 -11,17l0 0c-7,0 -11,-8 -11,-17l0 -48c0,-9 5,-17 11,-17l0 0c7,0 11,8 11,17l0 48z"/>
   <polygon class="fil4" points="477,491 228,491 133,307 532,307 "/>
   <polygon class="fil5" points="477,491 388,366 133,307 532,307 "/>
   <path class="fil6" d="M602 242c0,14 -11,27 -25,27l-71 0c-14,0 -25,-13 -25,-27l0 0c0,-14 11,-27 25,-27l71 0c14,0 25,13 25,27l0 0z"/>
   <g>
    <path class="fil7" d="M602 244l0 0c0,14 -11,25 -25,25l-71 0c-14,0 -25,-11 -25,-25l0 0 122 0zm0 0l0 0 0 0z"/>
   </g>
   <path class="fil5" d="M498 483c0,5 -3,8 -8,8l-261 0c-5,0 -8,-3 -8,-8l0 0c0,-5 3,-8 8,-8l261 0c5,0 8,3 8,8l0 0z"/>
   <circle class="fil8" cx="230" cy="496" r="57"/>
   <g>
    <path class="fil9" d="M270 457c22,22 22,59 0,81 -22,22 -59,22 -81,-1l81 -80zm0 0l0 0 0 0z"/>
   </g>
   <circle class="fil1" cx="230" cy="496" r="27"/>
   <g>
    <path class="fil10" d="M230 470c15,0 27,12 27,27 0,15 -12,27 -27,27l0 -54zm0 0l0 0 0 0z"/>
   </g>
   <circle class="fil11" cx="230" cy="496" r="16"/>
   <g>
    <path class="fil12" d="M241 485c6,6 6,17 0,23 -6,6 -17,6 -23,0l23 -23zm0 0l0 0 0 0z"/>
   </g>
   <circle class="fil8" cx="455" cy="496" r="57"/>
   <g>
    <path class="fil9" d="M495 457c22,22 22,59 0,81 -22,22 -59,22 -81,-1l81 -80zm0 0l0 0 0 0z"/>
   </g>
   <circle class="fil1" cx="455" cy="496" r="27"/>
   <g>
    <path class="fil10" d="M455 470c15,0 27,12 27,27 0,15 -12,27 -27,27l0 -54zm0 0l0 0 0 0z"/>
   </g>
   <circle class="fil11" cx="455" cy="496" r="16"/>
   <g>
    <g>
     <path class="fil12" d="M466 485c6,6 6,17 0,23 -6,6 -17,6 -23,0l23 -23zm0 0l0 0 0 0z"/>
    </g>
    <g>
     <path class="fil13" d="M215 342c0,5 -4,9 -9,9l0 0c-5,0 -9,-4 -9,-9l0 0c0,-5 4,-9 9,-9l0 0c5,0 9,4 9,9l0 0z"/>
     <path class="fil13" d="M259 342c0,5 -4,9 -9,9l0 0c-5,0 -9,-4 -9,-9l0 0c0,-5 4,-9 9,-9l0 0c5,0 9,4 9,9l0 0z"/>
     <path class="fil13" d="M302 342c0,5 -4,9 -9,9l0 0c-5,0 -9,-4 -9,-9l0 0c0,-5 4,-9 9,-9l0 0c5,0 9,4 9,9l0 0z"/>
     <path class="fil13" d="M347 342c0,5 -4,9 -9,9l0 0c-5,0 -9,-4 -9,-9l0 0c0,-5 4,-9 9,-9l0 0c5,0 9,4 9,9l0 0z"/>
     <path class="fil13" d="M390 342c0,5 -4,9 -9,9l0 0c-5,0 -9,-4 -9,-9l0 0c0,-5 4,-9 9,-9l0 0c5,0 9,4 9,9l0 0z"/>
     <path class="fil13" d="M434 342c0,5 -4,9 -9,9l0 0c-5,0 -9,-4 -9,-9l0 0c0,-5 4,-9 9,-9l0 0c5,0 9,4 9,9l0 0z"/>
     <path class="fil13" d="M478 342c0,5 -4,9 -9,9l0 0c-5,0 -9,-4 -9,-9l0 0c0,-5 4,-9 9,-9l0 0c5,0 9,4 9,9l0 0z"/>
     <path class="fil13" d="M215 380c0,5 -4,9 -9,9l0 0c-5,0 -9,-4 -9,-9l0 0c0,-5 4,-9 9,-9l0 0c5,-1 9,4 9,9l0 0z"/>
     <path class="fil13" d="M259 380c0,5 -4,9 -9,9l0 0c-5,0 -9,-4 -9,-9l0 0c0,-5 4,-9 9,-9l0 0c5,-1 9,4 9,9l0 0z"/>
     <path class="fil13" d="M302 380c0,5 -4,9 -9,9l0 0c-5,0 -9,-4 -9,-9l0 0c0,-5 4,-9 9,-9l0 0c5,-1 9,4 9,9l0 0z"/>
     <path class="fil13" d="M347 380c0,5 -4,9 -9,9l0 0c-5,0 -9,-4 -9,-9l0 0c0,-5 4,-9 9,-9l0 0c5,-1 9,4 9,9l0 0z"/>
     <path class="fil13" d="M390 380c0,5 -4,9 -9,9l0 0c-5,0 -9,-4 -9,-9l0 0c0,-5 4,-9 9,-9l0 0c5,-1 9,4 9,9l0 0z"/>
     <path class="fil13" d="M434 380c0,5 -4,9 -9,9l0 0c-5,0 -9,-4 -9,-9l0 0c0,-5 4,-9 9,-9l0 0c5,-1 9,4 9,9l0 0z"/>
     <path class="fil13" d="M478 380c0,5 -4,9 -9,9l0 0c-5,0 -9,-4 -9,-9l0 0c0,-5 4,-9 9,-9l0 0c5,-1 9,4 9,9l0 0z"/>
     <path class="fil13" d="M259 417c0,5 -4,9 -9,9l0 0c-5,0 -9,-4 -9,-9l0 0c0,-5 4,-9 9,-9l0 0c5,0 9,5 9,9l0 0z"/>
     <path class="fil13" d="M302 417c0,5 -4,9 -9,9l0 0c-5,0 -9,-4 -9,-9l0 0c0,-5 4,-9 9,-9l0 0c5,0 9,5 9,9l0 0z"/>
     <path class="fil13" d="M347 417c0,5 -4,9 -9,9l0 0c-5,0 -9,-4 -9,-9l0 0c0,-5 4,-9 9,-9l0 0c5,0 9,5 9,9l0 0z"/>
     <path class="fil13" d="M390 417c0,5 -4,9 -9,9l0 0c-5,0 -9,-4 -9,-9l0 0c0,-5 4,-9 9,-9l0 0c5,0 9,5 9,9l0 0z"/>
     <path class="fil13" d="M434 417c0,5 -4,9 -9,9l0 0c-5,0 -9,-4 -9,-9l0 0c0,-5 4,-9 9,-9l0 0c5,0 9,5 9,9l0 0z"/>
     <path class="fil13" d="M478 417c0,5 -4,9 -9,9l0 0c-5,0 -9,-4 -9,-9l0 0c0,-5 4,-9 9,-9l0 0c5,0 9,5 9,9l0 0z"/>
     <path class="fil13" d="M302 456c0,5 -4,9 -9,9l0 0c-5,0 -9,-4 -9,-9l0 0c0,-5 4,-9 9,-9l0 0c5,0 9,4 9,9l0 0z"/>
     <path class="fil13" d="M347 456c0,5 -4,9 -9,9l0 0c-5,0 -9,-4 -9,-9l0 0c0,-5 4,-9 9,-9l0 0c5,0 9,4 9,9l0 0z"/>
     <path class="fil13" d="M390 456c0,5 -4,9 -9,9l0 0c-5,0 -9,-4 -9,-9l0 0c0,-5 4,-9 9,-9l0 0c5,0 9,4 9,9l0 0z"/>
    </g>
   </g>
   <g>
   </g>
   <g>
   </g>
   <g>
   </g>
   <g>
   </g>
   <g>
   </g>
   <g>
   </g>
   <g>
   </g>
   <g>
   </g>
   <g>
   </g>
   <g>
   </g>
   <g>
   </g>
   <g>
   </g>
   <g>
   </g>
   <g>
   </g>
   <g>
   </g>
  </g>
 </g>
</svg>
