<?xml version="1.0" encoding="UTF-8"?>
<!DOCTYPE svg PUBLIC "-//W3C//DTD SVG 1.1//EN" "http://www.w3.org/Graphics/SVG/1.1/DTD/svg11.dtd">
<!-- Creator: CorelDRAW 2017 -->
<svg xmlns="http://www.w3.org/2000/svg" xml:space="preserve" width="0.636429in" height="0.476429in" version="1.1" style="shape-rendering:geometricPrecision; text-rendering:geometricPrecision; image-rendering:optimizeQuality; fill-rule:evenodd; clip-rule:evenodd"
viewBox="0 0 99 74"
 xmlns:xlink="http://www.w3.org/1999/xlink">
 <defs>
  <style type="text/css">
   <![CDATA[
    .fil3 {fill:none;fill-rule:nonzero}
    .fil5 {fill:#FF6600}
    .fil4 {fill:red;fill-rule:nonzero}
    .fil0 {fill:#FF6600;fill-rule:nonzero}
    .fil6 {fill:#FF6600;fill-rule:nonzero}
    .fil2 {fill:black;fill-opacity:0.250980}
    .fil1 {fill:black;fill-rule:nonzero;fill-opacity:0.250980}
   ]]>
  </style>
   <clipPath id="id0" style="clip-rule:nonzero">
    <path d="M71 74c-7,0 -12,1 -13,-4l-12 -33 0 0 -12 35c-2,3 -18,3 -20,0l-15 -57c0,-4 14,-3 15,-1l10 45 0 0 14 -44c1,-2 14,-2 16,0l14 44 0 0 0 -1 0 15 2 0z"/>
   </clipPath>
 </defs>
 <g id="Layer_x0020_1">
  <metadata id="CorelCorpID_0Corel-Layer"/>
  <path class="fil0" d="M71 74c-7,0 -12,1 -13,-4l-12 -33 0 0 -12 35c-2,3 -18,3 -20,0l-15 -57c0,-4 14,-3 15,-1l10 45 0 0 14 -44c1,-2 14,-2 16,0l14 44 0 0 0 -1 0 15 2 0z"/>
  <g style="clip-path:url(#id0)">
   <g id="_2760089111984">
    <path id="1" class="fil1" d="M80 71c0,0 0,1 0,1 0,0 -1,1 -1,1 -1,0 -1,0 -2,0 -1,0 -2,0 -4,0 -1,0 -8,0 -9,0l3 -17 5 -42 15 0 -7 57z"/>
    <path class="fil2" d="M59 41l-15 3 -2 -8 -4 -21 0 -1c2,-2 13,-2 16,0l5 27 0 0z"/>
   </g>
  </g>
  <path class="fil3" d="M71 74c-7,0 -12,1 -13,-4l-12 -33 0 0 -12 35c-2,3 -18,3 -20,0l-15 -57c0,-4 14,-3 15,-1l10 45 0 0 14 -44c1,-2 14,-2 16,0l14 44 0 0 0 -1 0 15 2 0z"/>
  <path class="fil4" d="M82 8l2 -6c0,0 0,-1 1,-1 0,0 1,-1 1,-1 1,0 1,0 2,0 1,0 2,0 4,0 1,0 3,0 4,0 1,0 2,0 2,0 1,0 1,0 1,1 0,0 0,1 0,1l-2 6 -15 0z"/>
  <path class="fil4" d="M80 71c0,0 0,1 -1,1 0,0 -1,1 -1,1 -1,0 -1,0 -2,0 -1,0 -2,0 -4,0 -1,0 -8,0 -9,0l6 -17 11 -42 15 0 -15 57z"/>
  <path class="fil5" d="M63 41l-15 3 -3 -8 -7 -21 0 -1c1,-2 13,-2 15,0l9 27 0 0z"/>
  <path class="fil6" d="M82 8l2 -6c0,0 0,-1 1,-1 0,0 1,-1 1,-1 1,0 1,0 2,0 1,0 2,0 4,0 1,0 3,0 4,0 1,0 2,0 2,0 1,0 1,0 1,1 0,0 0,1 0,1l-2 6 -15 0z"/>
 </g>
</svg>
