<?xml version="1.0" encoding="UTF-8"?>
<!DOCTYPE svg PUBLIC "-//W3C//DTD SVG 1.1//EN" "http://www.w3.org/Graphics/SVG/1.1/DTD/svg11.dtd">
<!-- Creator: CorelDRAW 2017 -->
<svg xmlns="http://www.w3.org/2000/svg" xml:space="preserve" width="2.99928in" height="2.99886in" version="1.1" style="shape-rendering:geometricPrecision; text-rendering:geometricPrecision; image-rendering:optimizeQuality; fill-rule:evenodd; clip-rule:evenodd"
viewBox="0 0 821 821"
 xmlns:xlink="http://www.w3.org/1999/xlink">
 <defs>
  <style type="text/css">
   <![CDATA[
    .fil5 {fill:#0AA06E}
    .fil1 {fill:#2F423F}
    .fil4 {fill:#50BB75}
    .fil6 {fill:#5E6664}
    .fil8 {fill:#8C8C8C}
    .fil0 {fill:#A8A8A8}
    .fil3 {fill:#D6D6D6}
    .fil2 {fill:#EAEAEA}
    .fil9 {fill:#FCA12A}
    .fil10 {fill:#FF8A15}
    .fil7 {fill:white}
   ]]>
  </style>
 </defs>
 <g id="Layer_x0020_1">
  <metadata id="CorelCorpID_0Corel-Layer"/>
  <circle class="fil0" cx="410" cy="410" r="410"/>
  <g id="_2759976811520">
   <path class="fil1" d="M551 192l-43 0 -97 352 -97 -352 -43 0c-46,0 -86,38 -86,83l0 281c0,46 40,80 86,80l281 0c46,0 86,-34 86,-80l0 -281c0,-46 -40,-84 -86,-84z"/>
   <polygon class="fil2" points="510,184 410,545 311,184 410,170 "/>
   <rect class="fil3" x="317" y="247" width="172" height="109"/>
   <polygon class="fil4" points="399,262 369,466 410,551 452,465 422,262 "/>
   <polygon class="fil5" points="422,262 410,262 410,551 410,552 452,466 "/>
   <g>
    <polygon class="fil6" points="317,191 410,550 245,297 290,229 251,209 256,193 314,175 "/>
    <polygon class="fil6" points="504,191 410,550 576,297 530,229 570,209 565,193 507,175 "/>
   </g>
   <g>
    <polygon class="fil7" points="375,163 304,173 330,270 365,345 408,262 "/>
    <polygon class="fil7" points="445,163 517,173 491,270 456,345 413,262 "/>
   </g>
   <path class="fil0" d="M499 184c0,27 -40,97 -89,97 -49,0 -89,-70 -89,-97 0,-27 40,-33 89,-33 49,0 89,5 89,33z"/>
   <path class="fil8" d="M410 173c44,0 80,4 87,21 1,-4 2,-7 2,-10 0,-27 -40,-33 -89,-33 -49,0 -89,5 -89,33 0,3 1,6 2,10 7,-17 44,-21 87,-21z"/>
   <circle class="fil9" cx="410" cy="589" r="21"/>
   <g>
    <path class="fil10" d="M425 573c9,9 9,22 0,30 -9,9 -22,9 -30,0l30 -30zm0 0l0 0 0 0z"/>
   </g>
   <rect class="fil7" x="512" y="449" width="94" height="16"/>
   <g id="_2759976818368">
   </g>
   <g id="_2759976816160">
   </g>
   <g id="_2759976815712">
   </g>
   <g id="_2759976814912">
   </g>
   <g id="_2759976814880">
   </g>
   <g id="_2759976812832">
   </g>
   <g id="_2759976813824">
   </g>
   <g id="_2759976814432">
   </g>
   <g id="_2759976813376">
   </g>
   <g id="_2759976814528">
   </g>
   <g id="_2759976812288">
   </g>
   <g id="_2759976811616">
   </g>
   <g id="_2759976812000">
   </g>
   <g id="_2759976811904">
   </g>
   <g id="_2759976812640">
   </g>
  </g>
 </g>
</svg>
