<?xml version="1.0" encoding="UTF-8"?>
<!DOCTYPE svg PUBLIC "-//W3C//DTD SVG 1.1//EN" "http://www.w3.org/Graphics/SVG/1.1/DTD/svg11.dtd">
<!-- Creator: CorelDRAW 2017 -->
<svg xmlns="http://www.w3.org/2000/svg" xml:space="preserve" width="3in" height="3in" version="1.1" style="shape-rendering:geometricPrecision; text-rendering:geometricPrecision; image-rendering:optimizeQuality; fill-rule:evenodd; clip-rule:evenodd"
viewBox="0 0 1310 1310"
 xmlns:xlink="http://www.w3.org/1999/xlink">
 <defs>
  <style type="text/css">
   <![CDATA[
    .fil1 {fill:#79AB03}
    .fil0 {fill:#85BC04}
    .fil2 {fill:white}
   ]]>
  </style>
 </defs>
 <g id="Layer_x0020_1">
  <metadata id="CorelCorpID_0Corel-Layer"/>
  <g id="_2760093951056">
   <circle class="fil0" cx="655" cy="655" r="655"/>
   <path class="fil1" d="M655 0c-29,0 -57,2 -85,6 321,42 569,317 569,649 0,333 -248,608 -569,649 28,4 56,6 85,6 362,0 655,-293 655,-655 0,-362 -293,-655 -655,-655z"/>
   <path class="fil2" d="M561 1118c-17,0 -33,-7 -45,-19l-314 -314c-12,-12 -19,-28 -19,-45 0,-17 7,-33 19,-45l454 -454c12,-12 28,-19 45,-19 5,0 10,1 15,2l251 63c23,6 41,24 47,47l63 251c5,22 -1,45 -17,61l-454 454c-12,12 -28,19 -45,19z"/>
   <g>
    <path class="fil0" d="M883 476c-16,0 -30,-6 -41,-17 -11,-11 -17,-26 -17,-41 0,-16 6,-30 17,-41 11,-11 26,-17 41,-17 16,0 30,6 41,17 11,11 17,26 17,41 0,16 -6,30 -17,41 -11,11 -26,17 -41,17z"/>
    <path class="fil0" d="M600 809l0 -76c0,-4 -4,-7 -8,-5l-68 33c-3,1 -6,0 -7,-3l-38 -78c-1,-3 0,-6 3,-7l45 -21c4,-2 4,-8 0,-10l-45 -21c-3,-1 -4,-5 -3,-7l38 -78c1,-3 5,-4 7,-3l68 33c4,2 8,-1 8,-5l0 -76c0,-3 2,-6 6,-6l87 0c3,0 6,2 6,6l0 76c0,4 4,7 8,5l68 -33c3,-1 6,0 7,3l38 78c1,3 0,6 -3,7l-45 21c-4,2 -4,8 0,10l45 21c3,1 4,5 3,7l-38 78c-1,3 -5,4 -7,3l-68 -33c-4,-2 -8,1 -8,5l0 76c0,3 -2,6 -6,6l-87 0c-3,0 -6,-2 -6,-6z"/>
   </g>
  </g>
 </g>
</svg>
