<?xml version="1.0" encoding="UTF-8"?>
<!DOCTYPE svg PUBLIC "-//W3C//DTD SVG 1.1//EN" "http://www.w3.org/Graphics/SVG/1.1/DTD/svg11.dtd">
<!-- Creator: CorelDRAW 2017 -->
<svg xmlns="http://www.w3.org/2000/svg" xml:space="preserve" width="2.99928in" height="2.99886in" version="1.1" style="shape-rendering:geometricPrecision; text-rendering:geometricPrecision; image-rendering:optimizeQuality; fill-rule:evenodd; clip-rule:evenodd"
viewBox="0 0 446 446"
 xmlns:xlink="http://www.w3.org/1999/xlink">
 <defs>
  <style type="text/css">
   <![CDATA[
    .fil1 {fill:#0391FD}
    .fil0 {fill:#1C3270}
    .fil2 {fill:#4362A5}
    .fil3 {fill:white}
   ]]>
  </style>
 </defs>
 <g id="Layer_x0020_1">
  <metadata id="CorelCorpID_0Corel-Layer"/>
  <circle class="fil0" cx="223" cy="223" r="223"/>
  <g id="_2760084200576">
   <g>
    <path class="fil1" d="M323 170l0 101c0,13 -11,24 -24,24l-101 0 -48 52 0 -52 -34 0c-13,0 -24,-11 -24,-24l0 -101c0,-13 11,-24 24,-24l182 0c13,0 24,11 24,24z"/>
    <path class="fil2" d="M348 80l-182 0c-13,0 -24,11 -24,24l0 43 158 0c13,0 24,11 24,24l0 58 24 0c13,0 24,-11 24,-24l0 -101c0,-13 -11,-24 -24,-24z"/>
    <circle class="fil3" cx="147" cy="223" r="14"/>
    <circle class="fil3" cx="209" cy="223" r="14"/>
    <circle class="fil3" cx="271" cy="223" r="14"/>
   </g>
   <g>
   </g>
   <g>
   </g>
   <g>
   </g>
   <g>
   </g>
   <g>
   </g>
   <g>
   </g>
   <g>
   </g>
   <g>
   </g>
   <g>
   </g>
   <g>
   </g>
   <g>
   </g>
   <g>
   </g>
   <g>
   </g>
   <g>
   </g>
   <g>
   </g>
  </g>
 </g>
</svg>
