<?xml version="1.0" encoding="UTF-8"?>
<!DOCTYPE svg PUBLIC "-//W3C//DTD SVG 1.1//EN" "http://www.w3.org/Graphics/SVG/1.1/DTD/svg11.dtd">
<!-- Creator: CorelDRAW 2017 -->
<svg xmlns="http://www.w3.org/2000/svg" xml:space="preserve" width="2.99928in" height="2.99886in" version="1.1" style="shape-rendering:geometricPrecision; text-rendering:geometricPrecision; image-rendering:optimizeQuality; fill-rule:evenodd; clip-rule:evenodd"
viewBox="0 0 334 334"
 xmlns:xlink="http://www.w3.org/1999/xlink">
 <defs>
  <style type="text/css">
   <![CDATA[
    .fil0 {fill:#61B872}
    .fil4 {fill:#61B872;fill-rule:nonzero}
    .fil6 {fill:#8E8872;fill-rule:nonzero}
    .fil1 {fill:#CEC9AE;fill-rule:nonzero}
    .fil2 {fill:#EDEADA;fill-rule:nonzero}
    .fil3 {fill:#F4F3ED;fill-rule:nonzero}
    .fil5 {fill:#F7B563;fill-rule:nonzero}
   ]]>
  </style>
 </defs>
 <g id="Layer_x0020_1">
  <metadata id="CorelCorpID_0Corel-Layer"/>
  <circle class="fil0" cx="167" cy="167" r="167"/>
  <g id="_1694056284896">
   <path class="fil1" d="M96 258c-8,0 -15,-7 -15,-15l0 -71 31 0 0 71c0,8 -7,15 -15,15z"/>
   <polygon class="fil1" points="112,113 253,113 253,79 112,79 "/>
   <path class="fil2" d="M112 187l0 55c0,8 -7,15 -15,15l142 0c8,0 15,-7 15,-15l0 -123 -142 0 0 68z"/>
   <polygon class="fil3" points="112,119 253,119 253,113 112,113 "/>
   <polygon class="fil4" points="130,165 167,165 167,128 130,128 "/>
   <path class="fil1" d="M235 131l-49 0c-2,0 -3,-1 -3,-3 0,-2 1,-3 3,-3l49 0c2,0 3,1 3,3 0,2 -1,3 -3,3z"/>
   <path class="fil1" d="M235 150l-49 0c-2,0 -3,-1 -3,-3 0,-2 1,-3 3,-3l49 0c2,0 3,1 3,3 0,2 -1,3 -3,3z"/>
   <path class="fil1" d="M235 168l-49 0c-2,0 -3,-1 -3,-3 0,-2 1,-3 3,-3l49 0c2,0 3,1 3,3 0,2 -1,3 -3,3z"/>
   <path class="fil1" d="M235 187l-102 0c-2,0 -3,-1 -3,-3 0,-2 1,-3 3,-3l102 0c2,0 3,1 3,3 0,2 -1,3 -3,3z"/>
   <path class="fil1" d="M179 205l-46 0c-2,0 -3,-1 -3,-3 0,-2 1,-3 3,-3l46 0c2,0 3,1 3,3 0,2 -1,3 -3,3z"/>
   <path class="fil1" d="M179 224l-46 0c-2,0 -3,-1 -3,-3 0,-2 1,-3 3,-3l46 0c2,0 3,1 3,3 0,2 -1,3 -3,3z"/>
   <path class="fil1" d="M179 242l-46 0c-2,0 -3,-1 -3,-3 0,-2 1,-3 3,-3l46 0c2,0 3,1 3,3 0,2 -1,3 -3,3z"/>
   <polygon class="fil5" points="198,239 235,239 235,202 198,202 "/>
   <polygon class="fil6" points="149,104 216,104 216,91 149,91 "/>
  </g>
 </g>
</svg>
