<?xml version="1.0" encoding="UTF-8"?>
<!DOCTYPE svg PUBLIC "-//W3C//DTD SVG 1.1//EN" "http://www.w3.org/Graphics/SVG/1.1/DTD/svg11.dtd">
<!-- Creator: CorelDRAW 2017 -->
<svg xmlns="http://www.w3.org/2000/svg" xml:space="preserve" width="2.99928in" height="2.99886in" version="1.1" style="shape-rendering:geometricPrecision; text-rendering:geometricPrecision; image-rendering:optimizeQuality; fill-rule:evenodd; clip-rule:evenodd"
viewBox="0 0 310 310"
 xmlns:xlink="http://www.w3.org/1999/xlink">
 <defs>
  <style type="text/css">
   <![CDATA[
    .fil1 {fill:#4B5F99}
    .fil4 {fill:#5F77AA}
    .fil2 {fill:#6379B7}
    .fil0 {fill:#E6E6E6}
    .fil3 {fill:#E7ECED}
   ]]>
  </style>
 </defs>
 <g id="Layer_x0020_1">
  <metadata id="CorelCorpID_0Corel-Layer"/>
  <circle class="fil0" cx="155" cy="155" r="155"/>
  <g id="_2761576833648">
   <path class="fil1" d="M237 117l-164 0 0 -30c0,-2 2,-4 4,-4l156 0c2,0 4,2 4,4l0 30z"/>
   <path class="fil2" d="M81 117l0 109c0,5 4,10 10,10l128 0c5,0 10,-4 10,-10l0 -109 -147 0z"/>
   <path class="fil1" d="M110 236l-19 0c-5,0 -10,-4 -10,-10l0 -19 0 0c16,0 28,13 28,28l0 0z"/>
   <path class="fil1" d="M219 236l-19 0 0 0c0,-16 13,-28 28,-28l0 0 0 19c0,5 -4,10 -10,10z"/>
   <path class="fil3" d="M171 162l-31 0c-5,0 -10,-4 -10,-10l0 -4c0,-2 1,-3 3,-3 2,0 3,1 3,3l0 4c0,2 2,4 4,4l31 0c2,0 4,-2 4,-4l0 -4c0,-2 1,-3 3,-3 2,0 3,1 3,3l0 4c0,5 -4,10 -10,10z"/>
   <rect class="fil4" x="81" y="117" width="147" height="17"/>
   <g>
   </g>
   <g>
   </g>
   <g>
   </g>
   <g>
   </g>
   <g>
   </g>
   <g>
   </g>
   <g>
   </g>
   <g>
   </g>
   <g>
   </g>
   <g>
   </g>
   <g>
   </g>
   <g>
   </g>
   <g>
   </g>
   <g>
   </g>
   <g>
   </g>
  </g>
 </g>
</svg>
