<?xml version="1.0" encoding="UTF-8"?>
<!DOCTYPE svg PUBLIC "-//W3C//DTD SVG 1.1//EN" "http://www.w3.org/Graphics/SVG/1.1/DTD/svg11.dtd">
<!-- Creator: CorelDRAW 2017 -->
<svg xmlns="http://www.w3.org/2000/svg" xml:space="preserve" width="8.26772in" height="8.26772in" version="1.1" style="shape-rendering:geometricPrecision; text-rendering:geometricPrecision; image-rendering:optimizeQuality; fill-rule:evenodd; clip-rule:evenodd"
viewBox="0 0 1162 1162"
 xmlns:xlink="http://www.w3.org/1999/xlink">
 <defs>
  <style type="text/css">
   <![CDATA[
    .fil4 {fill:#6B7F9E}
    .fil6 {fill:#8597B1}
    .fil3 {fill:#F0B97D}
    .fil9 {fill:#FCD34E}
    .fil1 {fill:#FEC982}
    .fil0 {fill:#FF7069}
    .fil2 {fill:#FFD190}
    .fil8 {fill:#FFE356}
    .fil7 {fill:#FFF1DF}
    .fil5 {fill:white}
   ]]>
  </style>
 </defs>
 <g id="Layer_x0020_1">
  <metadata id="CorelCorpID_0Corel-Layer"/>
  <g id="_1694290165472">
   <circle class="fil0" cx="581" cy="581" r="581"/>
   <path class="fil1" d="M591 825l118 -71c27,-17 42,15 25,24l-92 51 -51 -4z"/>
   <g>
    <path class="fil2" d="M643 818l127 -78c30,-18 46,19 29,28l-87 51 -69 -1 0 0 0 0z"/>
    <path class="fil2" d="M336 845l-241 55c-36,-55 -64,-117 -80,-183l301 -20c48,-7 93,-7 112,4 35,20 31,62 111,84l114 20 183 -45c34,-6 40,32 18,41l-246 87c-33,12 -113,-15 -273,-43z"/>
   </g>
   <path class="fil3" d="M691 797c12,13 -12,21 -48,28 -25,5 -60,12 -76,16 -32,1 -114,-18 -172,-40 30,-1 153,36 173,33 20,-4 113,-28 119,-32 6,-4 3,-3 4,-5z"/>
   <path class="fil4" d="M211 682l32 239 -117 21c-56,-70 -95,-153 -114,-244l199 -15z"/>
   <polygon class="fil5" points="254,684 285,908 242,913 211,689 "/>
   <path class="fil6" d="M222 888c1,9 -5,17 -14,18 -9,1 -17,-5 -18,-14 -1,-9 5,-17 14,-18 9,-1 17,5 18,14z"/>
   <path class="fil2" d="M399 694c60,-9 100,26 130,68l54 13c0,0 51,-11 78,-3 27,8 36,30 25,36 -11,6 -100,22 -119,25 -20,4 -131,-19 -172,-32 -41,-13 -66,-93 4,-108l0 0z"/>
   <path class="fil7" d="M837 808l29 -9c4,-1 1,-10 -4,-10 -5,0 -31,7 -31,7 3,4 7,9 6,13z"/>
   <path class="fil5" d="M648 815l37 -8c3,-1 1,-15 -7,-18 -7,-3 -38,4 -38,4 2,5 7,14 7,22l0 0z"/>
   <path class="fil2" d="M597 456l80 -6c11,-1 42,-20 42,-20l-29 -49 -75 -9 -58 53 -22 46c-13,24 -57,19 -46,-11l25 -76c0,0 63,-68 86,-78 23,-9 187,-18 187,-18 0,0 134,73 184,105l158 -2c15,43 25,89 29,136l-200 -5c0,0 -127,25 -170,18 -43,-6 -103,-25 -103,-25 0,0 -76,1 -97,-8 -30,-11 -28,-49 8,-52l0 0 0 0z"/>
   <path class="fil5" d="M490 451c1,1 9,4 9,4l-7 22c0,0 -9,4 -7,-5 1,-9 6,-21 6,-21l0 0 0 0z"/>
   <path class="fil8" d="M622 455c-1,-4 -2,-7 -3,-11 -5,-16 -14,-30 -25,-42 -20,-21 -49,-35 -81,-35 -61,0 -111,50 -111,111 0,61 50,111 111,111 38,0 72,-19 91,-48 8,-11 13,-23 16,-36 1,-3 1,-7 2,-10 1,-5 1,-11 1,-17 0,-8 -1,-16 -2,-24l0 0 0 1z"/>
   <path class="fil9" d="M616 456c-1,-3 -2,-7 -3,-10 -5,-15 -13,-29 -24,-40 -19,-20 -47,-33 -77,-33 -58,0 -106,47 -106,106 0,58 47,106 106,106 36,0 68,-18 87,-46 7,-10 12,-22 15,-35 1,-3 1,-6 2,-9 1,-5 1,-11 1,-16 0,-8 -1,-15 -2,-22l0 0 0 0z"/>
   <g>
    <path class="fil8" d="M513 396c-46,0 -83,37 -83,83 0,46 37,83 83,83 46,0 83,-37 83,-83 0,-46 -37,-83 -83,-83l0 0zm0 10c40,0 72,33 72,72 0,40 -33,72 -72,72 -40,0 -72,-33 -72,-72 0,-40 33,-72 72,-72z"/>
    <path class="fil8" d="M507 529l0 -12c-8,0 -16,-3 -21,-5l4 -15c5,3 12,5 21,5 7,0 12,-3 12,-8 0,-5 -4,-8 -13,-11 -13,-4 -22,-11 -22,-23 0,-11 8,-20 21,-22l0 -12 12 0 0 11c8,0 14,2 18,4l-4 14c-3,-1 -9,-4 -18,-4 -8,0 -11,4 -11,7 0,4 4,7 15,11 15,5 21,12 21,23 0,11 -8,20 -22,23l0 13 -12 0 0 0z"/>
   </g>
   <path class="fil2" d="M597 456c36,-3 69,-6 80,-6 11,-1 42,-20 42,-20 0,0 79,33 74,65 -5,33 -12,34 -21,43 -40,-8 -85,-22 -85,-22 0,0 -76,1 -97,-8 -30,-11 -28,-49 8,-52l0 0 0 0z"/>
   <polygon class="fil5" points="980,363 993,573 1049,570 1035,359 "/>
   <path class="fil4" d="M1026 338l16 255 120 -2c0,-3 0,-7 0,-10 0,-89 -20,-174 -56,-250l-80 7 0 0z"/>
   <path class="fil5" d="M574 487l38 -1 0 23c0,0 -33,1 -40,-4 -6,-5 -4,-17 1,-18l0 0z"/>
   <path class="fil6" d="M1096 557c1,9 -5,17 -14,18 -9,1 -17,-5 -18,-14 -1,-9 5,-17 14,-18 9,-1 17,5 18,14z"/>
   <g>
   </g>
   <g>
   </g>
   <g>
   </g>
   <g>
   </g>
   <g>
   </g>
   <g>
   </g>
   <g>
   </g>
   <g>
   </g>
   <g>
   </g>
   <g>
   </g>
   <g>
   </g>
   <g>
   </g>
   <g>
   </g>
   <g>
   </g>
   <g>
   </g>
  </g>
 </g>
</svg>
