<?xml version="1.0" encoding="UTF-8"?>
<!DOCTYPE svg PUBLIC "-//W3C//DTD SVG 1.1//EN" "http://www.w3.org/Graphics/SVG/1.1/DTD/svg11.dtd">
<!-- Creator: CorelDRAW 2017 -->
<svg xmlns="http://www.w3.org/2000/svg" xml:space="preserve" width="2.99928in" height="2.99886in" version="1.1" style="shape-rendering:geometricPrecision; text-rendering:geometricPrecision; image-rendering:optimizeQuality; fill-rule:evenodd; clip-rule:evenodd"
viewBox="0 0 4293 4292"
 xmlns:xlink="http://www.w3.org/1999/xlink">
 <defs>
  <style type="text/css">
   <![CDATA[
    .fil0 {fill:#0391FD}
    .fil1 {fill:white}
   ]]>
  </style>
 </defs>
 <g id="Layer_x0020_1">
  <metadata id="CorelCorpID_0Corel-Layer"/>
  <circle class="fil0" cx="2146" cy="2146" r="2146"/>
  <g id="_2760210729712">
   <g>
    <g>
     <path class="fil1" d="M2146 1990c292,0 529,-277 529,-620 0,-475 -237,-620 -529,-620 -292,0 -529,145 -529,620 0,342 237,620 529,620z"/>
     <path class="fil1" d="M3315 2902l-267 -602c-12,-28 -34,-50 -60,-64l-414 -216c-9,-5 -20,-4 -28,2 -117,89 -255,136 -399,136 -144,0 -281,-47 -399,-136 -8,-6 -19,-7 -28,-2l-414 216c-27,14 -48,37 -60,64l-267 602c-18,41 -15,89 10,127 25,38 67,61 112,61l2094 0c45,0 87,-23 112,-61 25,-38 29,-86 10,-127z"/>
    </g>
   </g>
   <g>
   </g>
   <g>
   </g>
   <g>
   </g>
   <g>
   </g>
   <g>
   </g>
   <g>
   </g>
   <g>
   </g>
   <g>
   </g>
   <g>
   </g>
   <g>
   </g>
   <g>
   </g>
   <g>
   </g>
   <g>
   </g>
   <g>
   </g>
   <g>
   </g>
  </g>
 </g>
</svg>
