<?xml version="1.0" encoding="iso-8859-1"?>
<!-- Generator: Adobe Illustrator 17.1.0, SVG Export Plug-In . SVG Version: 6.00 Build 0)  -->
<!DOCTYPE svg PUBLIC "-//W3C//DTD SVG 1.1//EN" "http://www.w3.org/Graphics/SVG/1.1/DTD/svg11.dtd">
<svg xmlns="http://www.w3.org/2000/svg" xmlns:xlink="http://www.w3.org/1999/xlink" version="1.1" id="Capa_1" x="0px" y="0px" viewBox="0 0 361.955 361.955" style="enable-background:new 0 0 361.955 361.955;" xml:space="preserve" width="512px" height="512px">
<g>
	<g>
		<path d="M180.636,47.876V5.5c0-3.037-2.463-5.5-5.5-5.5H45.304c-3.037,0-5.5,2.463-5.5,5.5v42.314    C20.969,50.281,6.377,66.423,6.377,85.92v239.057c0,0.307,0.031,0.605,0.08,0.898c1.226,20.101,17.959,36.08,38.362,36.08h130.316    c20.403,0,37.137-15.98,38.362-36.08c0.049-0.293,0.08-0.592,0.08-0.898V85.92C213.578,66.59,199.236,50.553,180.636,47.876z     M50.804,11h118.832v36.477H50.804V11z M202.578,323.512c0,15.133-12.311,27.443-27.442,27.443H44.819    c-15.132,0-27.442-12.311-27.442-27.443V85.92c0-15.132,12.311-27.443,27.442-27.443c0.082,0,0.161-0.009,0.242-0.012    c0.081,0.003,0.16,0.012,0.242,0.012h129.832c15.132,0,27.442,12.312,27.442,27.443V323.512z" fill="#FFFFFF"/>
	</g>
	<g>
		<path d="M335.814,232.477H240.58c-3.037,0-5.5,2.463-5.5,5.5c0,3.037,2.463,5.5,5.5,5.5c4.833,0,8.765,3.932,8.765,8.765v89.165    c-0.037,0.257-0.063,0.518-0.063,0.785c0,10.897,8.866,19.764,19.764,19.764h66.768c10.389,0,18.911-8.061,19.688-18.254    c0.046-0.286,0.076-0.578,0.076-0.877v-90.583C355.578,241.343,346.712,232.477,335.814,232.477z M335.814,350.955h-66.768    c-4.523,0-8.257-3.445-8.716-7.85c0.005-0.094,0.015-0.186,0.015-0.281v-90.583c0-3.145-0.738-6.122-2.052-8.765h77.521    c4.833,0,8.765,3.932,8.765,8.765v11.26h-30.745c-3.037,0-5.5,2.463-5.5,5.5c0,3.037,2.463,5.5,5.5,5.5h30.745v18.302h-30.745    c-3.037,0-5.5,2.463-5.5,5.5c0,3.037,2.463,5.5,5.5,5.5h30.745v18.301h-30.745c-3.037,0-5.5,2.463-5.5,5.5    c0,3.037,2.463,5.5,5.5,5.5h30.745v9.088C344.578,347.023,340.647,350.955,335.814,350.955z" fill="#FFFFFF"/>
	</g>
	<g>
		<path d="M158.22,181.216h-24.5v-24.5c0-3.037-2.463-5.5-5.5-5.5h-36c-3.037,0-5.5,2.463-5.5,5.5v24.5h-24.5    c-3.037,0-5.5,2.463-5.5,5.5v36c0,3.037,2.463,5.5,5.5,5.5h24.5v24.5c0,3.037,2.463,5.5,5.5,5.5h36c3.037,0,5.5-2.463,5.5-5.5    v-24.5h24.5c3.037,0,5.5-2.463,5.5-5.5v-36C163.72,183.679,161.257,181.216,158.22,181.216z M152.72,217.216h-24.5    c-3.037,0-5.5,2.463-5.5,5.5v24.5h-25v-24.5c0-3.037-2.463-5.5-5.5-5.5h-24.5v-25h24.5c3.037,0,5.5-2.463,5.5-5.5v-24.5h25v24.5    c0,3.037,2.463,5.5,5.5,5.5h24.5V217.216z" fill="#FFFFFF"/>
	</g>
</g>
<g>
</g>
<g>
</g>
<g>
</g>
<g>
</g>
<g>
</g>
<g>
</g>
<g>
</g>
<g>
</g>
<g>
</g>
<g>
</g>
<g>
</g>
<g>
</g>
<g>
</g>
<g>
</g>
<g>
</g>
</svg>
