<?xml version="1.0" encoding="iso-8859-1"?>
<!-- Generator: Adobe Illustrator 19.0.0, SVG Export Plug-In . SVG Version: 6.00 Build 0)  -->
<svg xmlns="http://www.w3.org/2000/svg" xmlns:xlink="http://www.w3.org/1999/xlink" version="1.1" id="Layer_1" x="0px" y="0px" viewBox="0 0 512.009 512.009" style="enable-background:new 0 0 512.009 512.009;" xml:space="preserve" width="512px" height="512px">
<g>
	<g>
		<path d="M511.173,219.935c-0.491-1.173-1.216-2.219-2.091-3.136c-0.085-0.085-0.107-0.213-0.213-0.299    c-28.949-28.949-28.907-107.115-28.885-149.12v-3.371c0-5.888-4.779-10.667-10.667-10.667c-64.96,0-120.533-18.304-152.448-50.219    c-3.051-3.051-7.616-3.968-11.627-2.304c-3.968,1.643-6.571,5.547-6.571,9.856v202.667H85.338v-96    c0-29.397-23.936-53.333-53.333-53.333H10.671c-5.888,0-10.667,4.779-10.667,10.667s4.779,10.667,10.667,10.667h21.333    c17.643,0,32,14.357,32,32v170.667c0,41.173,33.493,74.667,74.667,74.667h94.784l-46.891,33.493    c-10.517-7.573-23.317-12.16-37.227-12.16c-35.285,0-64,28.715-64,64c0,35.285,28.715,64,64,64    c31.637,0,57.813-23.125,62.912-53.333h108.821c5.12,30.208,31.296,53.333,62.933,53.333c35.285,0,64-28.715,64-64    c0-35.285-28.715-64-64-64c-13.909,0-26.688,4.565-37.184,12.139l-46.869-33.472h116.053c52.928,0,96-43.072,96-96v-42.624    C512.005,222.644,511.727,221.257,511.173,219.935z M149.338,490.676c-23.531,0-42.667-19.136-42.667-42.667    c0-23.531,19.136-42.667,42.667-42.667c23.531,0,42.667,19.136,42.667,42.667C192.005,471.54,172.869,490.676,149.338,490.676z     M384.005,405.343c23.531,0,42.667,19.136,42.667,42.667c0,23.531-19.136,42.667-42.667,42.667    c-23.531,0-42.667-19.136-42.667-42.667C341.338,424.479,360.474,405.343,384.005,405.343z M320.026,33.759L320.026,33.759    c43.968,31.979,101.099,39.637,138.667,40.768c0.043,41.28,1.387,101.077,22.123,138.816H335.109l88.448-88.448    c4.16-4.16,4.16-10.923,0-15.083c-4.16-4.16-10.923-4.16-15.083,0l-88.448,88.448V33.759z M331.589,411.487    c-5.312,7.595-8.896,16.363-10.496,25.856H212.25c-1.6-9.472-5.184-18.261-10.496-25.835l64.917-46.379L331.589,411.487z     M490.671,266.676c0,41.173-33.493,74.667-74.667,74.667H138.671c-29.397,0-53.333-23.936-53.333-53.333v-53.333h405.333V266.676z    " fill="#FFFFFF"/>
	</g>
</g>
<g>
</g>
<g>
</g>
<g>
</g>
<g>
</g>
<g>
</g>
<g>
</g>
<g>
</g>
<g>
</g>
<g>
</g>
<g>
</g>
<g>
</g>
<g>
</g>
<g>
</g>
<g>
</g>
<g>
</g>
</svg>
