<?xml version="1.0" encoding="iso-8859-1"?>
<!-- Generator: Adobe Illustrator 19.0.0, SVG Export Plug-In . SVG Version: 6.00 Build 0)  -->
<svg version="1.1" id="Layer_1" xmlns="http://www.w3.org/2000/svg" xmlns:xlink="http://www.w3.org/1999/xlink" x="0px" y="0px"
	 viewBox="0 0 512 512" style="enable-background:new 0 0 512 512;" xml:space="preserve">
<circle style="fill:#85BC04;" cx="256" cy="256" r="256"/>
<path style="fill:#79AB03;" d="M256,0c-11.317,0-22.461,0.744-33.391,2.167C348.216,18.53,445.217,125.933,445.217,256
	s-97.002,237.47-222.609,253.833C233.539,511.256,244.683,512,256,512c141.385,0,256-114.616,256-256S397.385,0,256,0z"/>
<path style="fill:#FFFFFF;" d="M219.119,437.171c-6.688,0-12.973-2.6-17.693-7.322L78.618,307.041
	c-4.726-4.725-7.328-11.009-7.328-17.693c0-6.685,2.602-12.968,7.329-17.693L256.154,94.12c4.654-4.654,11.116-7.323,17.731-7.323
	c2.037,0,4.066,0.249,6.032,0.741l98.247,24.562c8.983,2.246,15.96,9.222,18.206,18.204l24.562,98.247
	c2.12,8.479-0.402,17.585-6.583,23.763L236.812,429.85C232.091,434.571,225.806,437.171,219.119,437.171z"/>
<g>
	<path style="fill:#85BC04;" d="M345.045,186.232c-6.098,0-11.828-2.371-16.134-6.675c-4.31-4.311-6.683-10.041-6.683-16.136
		c0-6.096,2.373-11.825,6.683-16.134c4.304-4.305,10.035-6.677,16.134-6.677c6.099,0,11.829,2.372,16.136,6.678
		c4.309,4.307,6.682,10.037,6.682,16.132c0,6.095-2.373,11.826-6.683,16.135C356.874,183.861,351.143,186.232,345.045,186.232z"/>
	<path style="fill:#85BC04;" d="M234.6,316.22v-29.587c0-1.593-1.664-2.638-3.099-1.946l-26.651,12.851
		c-1.075,0.519-2.366,0.067-2.884-1.007l-14.779-30.652c-0.519-1.075-0.067-2.366,1.007-2.884l17.397-8.389
		c1.63-0.786,1.63-3.107,0-3.892l-17.397-8.389c-1.075-0.519-1.526-1.81-1.007-2.884l14.779-30.652
		c0.519-1.075,1.81-1.526,2.884-1.007l26.651,12.851c1.435,0.691,3.099-0.354,3.099-1.946v-29.587c0-1.193,0.967-2.16,2.16-2.16
		h34.028c1.193,0,2.16,0.967,2.16,2.16v29.587c0,1.593,1.664,2.638,3.099,1.946l26.651-12.851c1.075-0.519,2.366-0.067,2.884,1.007
		l14.779,30.652c0.519,1.075,0.067,2.366-1.007,2.884l-17.397,8.389c-1.629,0.786-1.629,3.107,0,3.892l17.397,8.389
		c1.075,0.519,1.526,1.81,1.007,2.884l-14.779,30.652c-0.519,1.075-1.81,1.526-2.884,1.007l-26.651-12.851
		c-1.435-0.691-3.099,0.354-3.099,1.946v29.587c0,1.193-0.967,2.16-2.16,2.16H236.76C235.567,318.381,234.6,317.413,234.6,316.22z"
		/>
</g>
<g>
</g>
<g>
</g>
<g>
</g>
<g>
</g>
<g>
</g>
<g>
</g>
<g>
</g>
<g>
</g>
<g>
</g>
<g>
</g>
<g>
</g>
<g>
</g>
<g>
</g>
<g>
</g>
<g>
</g>
</svg>
